<svg width="44" height="46" viewBox="0 0 44 46" fill="none" xmlns="http://www.w3.org/2000/svg">
<path fill-rule="evenodd" clip-rule="evenodd" d="M37.9719 23.7049C37.8684 23.8284 37.7416 23.9383 37.5916 24.0285L2.27307 45.2693C1.27331 45.8706 0 45.1505 0 43.9839V1.50232C0 0.335689 1.27331 -0.384382 2.27307 0.21688L37.5916 21.4577C37.7416 21.5479 37.8684 21.6578 37.9719 21.7813V5.48618C37.9719 4.9339 38.4197 4.48618 38.9719 4.48618H42.9719C43.5242 4.48618 43.9719 4.9339 43.9719 5.48618V40.4862C43.9719 41.0385 43.5242 41.4862 42.9719 41.4862H38.9719C38.4197 41.4862 37.9719 41.0385 37.9719 40.4862V23.7049Z" fill="#901A36"/>
</svg>
